<svg xmlns="http://www.w3.org/2000/svg" viewBox="0 0 2339.05 816" width="2339.05" height="816" style="--bg:#1a1b26;--fg:#a9b1d6;--line:#3d59a1;--accent:#7aa2f7;--muted:#565f89;background:var(--bg)">
<style>
  @import url('https://fonts.googleapis.com/css2?family=Inter:wght@400;500;600;700&amp;display=swap');
  text { font-family: 'Inter', system-ui, sans-serif; }
  svg {
    /* Derived from --bg and --fg (overridable via --line, --accent, etc.) */
    --_text:          var(--fg);
    --_text-sec:      var(--muted, color-mix(in srgb, var(--fg) 60%, var(--bg)));
    --_text-muted:    var(--muted, color-mix(in srgb, var(--fg) 40%, var(--bg)));
    --_text-faint:    color-mix(in srgb, var(--fg) 25%, var(--bg));
    --_line:          var(--line, color-mix(in srgb, var(--fg) 30%, var(--bg)));
    --_arrow:         var(--accent, color-mix(in srgb, var(--fg) 50%, var(--bg)));
    --_node-fill:     var(--surface, color-mix(in srgb, var(--fg) 3%, var(--bg)));
    --_node-stroke:   var(--border, color-mix(in srgb, var(--fg) 20%, var(--bg)));
    --_group-fill:    var(--bg);
    --_group-hdr:     color-mix(in srgb, var(--fg) 5%, var(--bg));
    --_inner-stroke:  color-mix(in srgb, var(--fg) 12%, var(--bg));
    --_key-badge:     color-mix(in srgb, var(--fg) 10%, var(--bg));
  }
</style>
<defs>
  <marker id="arrowhead" markerWidth="8" markerHeight="4.8" refX="8" refY="2.4" orient="auto">
    <polygon points="0 0, 8 2.4, 0 4.8" fill="var(--_arrow)" />
  </marker>
  <marker id="arrowhead-start" markerWidth="8" markerHeight="4.8" refX="0" refY="2.4" orient="auto-start-reverse">
    <polygon points="8 0, 0 2.4, 8 4.8" fill="var(--_arrow)" />
  </marker>
</defs>
<rect x="86.47499999999991" y="40" width="247.5999999999999" height="112" rx="0" ry="0" fill="var(--_group-fill)" stroke="var(--_node-stroke)" stroke-width="1" />
<rect x="86.47499999999991" y="40" width="247.5999999999999" height="28" rx="0" ry="0" fill="var(--_group-hdr)" stroke="var(--_node-stroke)" stroke-width="1" />
<text x="98.47499999999991" y="54" dy="0.35em" font-size="12" font-weight="600" fill="var(--_text-sec)">Entry</text>
<rect x="40.000000000000114" y="196" width="340.54999999999995" height="268" rx="0" ry="0" fill="var(--_group-fill)" stroke="var(--_node-stroke)" stroke-width="1" />
<rect x="40.000000000000114" y="196" width="340.54999999999995" height="28" rx="0" ry="0" fill="var(--_group-hdr)" stroke="var(--_node-stroke)" stroke-width="1" />
<text x="52.000000000000114" y="210" dy="0.35em" font-size="12" font-weight="600" fill="var(--_text-sec)">Core</text>
<rect x="1089.1999999999998" y="352" width="1123.9875" height="268" rx="0" ry="0" fill="var(--_group-fill)" stroke="var(--_node-stroke)" stroke-width="1" />
<rect x="1089.1999999999998" y="352" width="1123.9875" height="28" rx="0" ry="0" fill="var(--_group-hdr)" stroke="var(--_node-stroke)" stroke-width="1" />
<text x="1101.1999999999998" y="366" dy="0.35em" font-size="12" font-weight="600" fill="var(--_text-sec)">Rendering</text>
<rect x="1552.15" y="664" width="746.9000000000001" height="112" rx="0" ry="0" fill="var(--_group-fill)" stroke="var(--_node-stroke)" stroke-width="1" />
<rect x="1552.15" y="664" width="746.9000000000001" height="28" rx="0" ry="0" fill="var(--_group-hdr)" stroke="var(--_node-stroke)" stroke-width="1" />
<text x="1564.15" y="678" dy="0.35em" font-size="12" font-weight="600" fill="var(--_text-sec)">Math</text>
<rect x="400.55000000000007" y="352" width="638.2625" height="112" rx="0" ry="0" fill="var(--_group-fill)" stroke="var(--_node-stroke)" stroke-width="1" />
<rect x="400.55000000000007" y="352" width="638.2625" height="28" rx="0" ry="0" fill="var(--_group-hdr)" stroke="var(--_node-stroke)" stroke-width="1" />
<text x="412.55000000000007" y="366" dy="0.35em" font-size="12" font-weight="600" fill="var(--_text-sec)">UI</text>
<rect x="316.4749999999999" y="508" width="631.7750000000001" height="268" rx="0" ry="0" fill="var(--_group-fill)" stroke="var(--_node-stroke)" stroke-width="1" />
<rect x="316.4749999999999" y="508" width="631.7750000000001" height="28" rx="0" ry="0" fill="var(--_group-hdr)" stroke="var(--_node-stroke)" stroke-width="1" />
<text x="328.4749999999999" y="522" dy="0.35em" font-size="12" font-weight="600" fill="var(--_text-sec)">IO</text>
<polyline points="210.2750000000001,132 210.2750000000001,252" fill="none" stroke="var(--_line)" stroke-width="0.75" marker-end="url(#arrowhead)" />
<polyline points="210.2750000000001,288 210.2750000000001,308 177.03750000000014,308 177.03750000000014,408" fill="none" stroke="var(--_line)" stroke-width="0.75" marker-end="url(#arrowhead)" />
<polyline points="210.2750000000001,288 210.2750000000001,308 295.4124999999999,308 295.4124999999999,426 1442.4750000000001,426" fill="none" stroke="var(--_line)" stroke-width="0.75" marker-end="url(#arrowhead)" />
<polyline points="210.2750000000001,288 210.2750000000001,308 197.03750000000014,308 197.03750000000014,426 514.1125,426" fill="none" stroke="var(--_line)" stroke-width="0.75" marker-end="url(#arrowhead)" />
<polyline points="210.2750000000001,288 210.2750000000001,308 275.4124999999999,308 275.4124999999999,426 813.2124999999999,426" fill="none" stroke="var(--_line)" stroke-width="0.75" marker-end="url(#arrowhead)" />
<polyline points="1558.575,444 1558.575,464 1922.025,464 1922.025,564" fill="none" stroke="var(--_line)" stroke-width="0.75" marker-end="url(#arrowhead)" />
<polyline points="1558.575,444 1558.575,564" fill="none" stroke="var(--_line)" stroke-width="0.75" marker-end="url(#arrowhead)" />
<polyline points="1558.575,444 1558.575,464 1241.6000000000001,464 1241.6000000000001,564" fill="none" stroke="var(--_line)" stroke-width="0.75" marker-end="url(#arrowhead)" />
<polyline points="1922.025,600 1922.025,620 1740.3000000000002,620 1740.3000000000002,720" fill="none" stroke="var(--_line)" stroke-width="0.75" marker-end="url(#arrowhead)" />
<polyline points="1922.025,600 1922.025,620 2103.75,620 2103.75,720" fill="none" stroke="var(--_line)" stroke-width="0.75" marker-end="url(#arrowhead)" />
<polyline points="651.6624999999999,444 651.6624999999999,464 500.3249999999998,464 500.3249999999998,564" fill="none" stroke="var(--_line)" stroke-width="0.75" marker-end="url(#arrowhead)" />
<polyline points="651.6624999999999,444 651.6624999999999,464 803,464 803,564" fill="none" stroke="var(--_line)" stroke-width="0.75" marker-end="url(#arrowhead)" />
<polyline points="1241.6000000000001,600 1241.6000000000001,640 411.61249999999995,640 411.61249999999995,738 342.04999999999984,738" fill="none" stroke="var(--_line)" stroke-width="0.75" marker-end="url(#arrowhead)" />
<polyline points="500.3249999999998,600 500.3249999999998,738 638.5999999999998,738" fill="none" stroke="var(--_line)" stroke-width="0.75" marker-end="url(#arrowhead)" />
<rect x="108.47500000000008" y="96" width="203.60000000000002" height="36" rx="0" ry="0" fill="var(--_node-fill)" stroke="var(--_node-stroke)" stroke-width="0.75" />
<rect x="62.000000000000085" y="252" width="296.55" height="36" rx="0" ry="0" fill="var(--_node-fill)" stroke="var(--_node-stroke)" stroke-width="0.75" />
<rect x="75.23750000000013" y="408" width="203.60000000000002" height="36" rx="0" ry="0" fill="var(--_node-fill)" stroke="var(--_node-stroke)" stroke-width="0.75" />
<rect x="1442.4750000000001" y="408" width="232.20000000000002" height="36" rx="0" ry="0" fill="var(--_node-fill)" stroke="var(--_node-stroke)" stroke-width="0.75" />
<rect x="1745.15" y="564" width="353.75" height="36" rx="0" ry="0" fill="var(--_node-fill)" stroke="var(--_node-stroke)" stroke-width="0.75" />
<rect x="1396" y="564" width="325.15000000000003" height="36" rx="0" ry="0" fill="var(--_node-fill)" stroke="var(--_node-stroke)" stroke-width="0.75" />
<rect x="1111.2" y="564" width="260.8" height="36" rx="0" ry="0" fill="var(--_node-fill)" stroke="var(--_node-stroke)" stroke-width="0.75" />
<rect x="1574.15" y="720" width="332.3" height="36" rx="0" ry="0" fill="var(--_node-fill)" stroke="var(--_node-stroke)" stroke-width="0.75" />
<rect x="1930.45" y="720" width="346.6" height="36" rx="0" ry="0" fill="var(--_node-fill)" stroke="var(--_node-stroke)" stroke-width="0.75" />
<rect x="514.1125" y="408" width="275.1" height="36" rx="0" ry="0" fill="var(--_node-fill)" stroke="var(--_node-stroke)" stroke-width="0.75" />
<rect x="813.2124999999999" y="408" width="203.60000000000002" height="36" rx="0" ry="0" fill="var(--_node-fill)" stroke="var(--_node-stroke)" stroke-width="0.75" />
<rect x="344.8999999999998" y="564" width="310.85" height="36" rx="0" ry="0" fill="var(--_node-fill)" stroke="var(--_node-stroke)" stroke-width="0.75" />
<rect x="679.75" y="564" width="246.50000000000003" height="36" rx="0" ry="0" fill="var(--_node-fill)" stroke="var(--_node-stroke)" stroke-width="0.75" />
<rect x="342.04999999999984" y="720" width="296.55" height="36" rx="0" ry="0" fill="var(--_node-fill)" stroke="var(--_node-stroke)" stroke-width="0.75" />
<text x="210.2750000000001" y="114" text-anchor="middle" dy="0.35em" font-size="13" font-weight="500" fill="var(--_text)">&quot;main.cpp - CLI Parsing&quot;</text>
<text x="210.2750000000001" y="270" text-anchor="middle" dy="0.35em" font-size="13" font-weight="500" fill="var(--_text)">&quot;application.cpp - Main Loop &amp; Input&quot;</text>
<text x="177.03750000000014" y="426" text-anchor="middle" dy="0.35em" font-size="13" font-weight="500" fill="var(--_text)">&quot;settings.cpp - Options&quot;</text>
<text x="1558.575" y="426" text-anchor="middle" dy="0.35em" font-size="13" font-weight="500" fill="var(--_text)">&quot;renderer.cpp - Base OpenGL&quot;</text>
<text x="1922.025" y="582" text-anchor="middle" dy="0.35em" font-size="13" font-weight="500" fill="var(--_text)">&quot;equation_renderer.cpp - Equation/Point Draw&quot;</text>
<text x="1558.575" y="582" text-anchor="middle" dy="0.35em" font-size="13" font-weight="500" fill="var(--_text)">&quot;grid_renderer.cpp - Grid &amp; Axis Overlay&quot;</text>
<text x="1241.6000000000001" y="582" text-anchor="middle" dy="0.35em" font-size="13" font-weight="500" fill="var(--_text)">&quot;shader.cpp - Shader Management&quot;</text>
<text x="1740.3000000000002" y="738" text-anchor="middle" dy="0.35em" font-size="13" font-weight="500" fill="var(--_text)">&quot;equation_parser.cpp - Expression Parsing&quot;</text>
<text x="2103.75" y="738" text-anchor="middle" dy="0.35em" font-size="13" font-weight="500" fill="var(--_text)">&quot;equation_generator.cpp - Adaptive Sampling&quot;</text>
<text x="651.6624999999999" y="426" text-anchor="middle" dy="0.35em" font-size="13" font-weight="500" fill="var(--_text)">&quot;ui_controller.cpp - ImGui Panels&quot;</text>
<text x="915.0124999999998" y="426" text-anchor="middle" dy="0.35em" font-size="13" font-weight="500" fill="var(--_text)">&quot;camera.cpp - 3D Camera&quot;</text>
<text x="500.3249999999998" y="582" text-anchor="middle" dy="0.35em" font-size="13" font-weight="500" fill="var(--_text)">&quot;data_manager.cpp - Import/Export .mat&quot;</text>
<text x="803" y="582" text-anchor="middle" dy="0.35em" font-size="13" font-weight="500" fill="var(--_text)">&quot;screenshot.cpp - PNG Capture&quot;</text>
<text x="490.3249999999998" y="738" text-anchor="middle" dy="0.35em" font-size="13" font-weight="500" fill="var(--_text)">&quot;resource_path.cpp - Path Resolution&quot;</text>
</svg>